<?xml version="1.0" encoding="UTF-8" standalone="no"?>
<svg width="45px" height="45px" viewBox="0 0 45 45" version="1.1" xmlns="http://www.w3.org/2000/svg" xmlns:xlink="http://www.w3.org/1999/xlink">
    <!-- Generator: Sketch 39.1 (31720) - http://www.bohemiancoding.com/sketch -->
    <title>spotify</title>
    <desc>Created with Sketch.</desc>
    <defs>
        <path d="M353.528056,14.5354358 C350.788138,12.9082729 346.268703,12.7586604 343.653123,13.5524999 C343.233112,13.6798837 342.788944,13.4427773 342.661661,13.0227661 C342.534379,12.6025519 342.771282,12.1586879 343.191598,12.0309996 C346.1941,11.1196219 351.185311,11.2956247 354.339557,13.168014 C354.717445,13.3923313 354.841378,13.8802467 354.617365,14.2574245 C354.393251,14.6352113 353.904929,14.7597531 353.528056,14.5354358 L353.528056,14.5354358 Z M353.438329,16.945476 C353.246188,17.2573887 352.838357,17.3551342 352.52685,17.1637032 C350.24257,15.7595381 346.759359,15.3528235 344.056894,16.1731548 C343.706411,16.2790203 343.336237,16.0813978 343.229864,15.7316253 C343.124201,15.3811423 343.321925,15.0116786 343.671698,14.9051025 C346.758953,13.9683496 350.596707,14.4220592 353.220305,16.0344029 C353.531812,16.2262398 353.629862,16.6342739 353.438329,16.945476 L353.438329,16.945476 Z M352.398248,19.2600038 C352.245591,19.5104068 351.919366,19.5889686 351.669877,19.4363111 C349.673758,18.2163703 347.161405,17.9407951 344.20265,18.6166904 C343.917533,18.682057 343.633432,18.5033137 343.56837,18.2182988 C343.503003,17.9331825 343.681036,17.6490811 343.966761,17.584019 C347.204644,16.843772 349.982118,17.1623837 352.22255,18.5314295 C352.472344,18.6839855 352.551007,19.0103113 352.398248,19.2600038 L352.398248,19.2600038 Z M348.500102,7 C343.805679,7 340,10.8054763 340,15.4998985 C340,20.1946252 343.805679,24 348.500102,24 C353.194625,24 357.000102,20.1946252 357.000102,15.4998985 C357.000102,10.8054763 353.194625,7 348.500102,7 L348.500102,7 Z" id="path-1"></path>
        <filter x="-50%" y="-50%" width="200%" height="200%" filterUnits="objectBoundingBox" id="filter-2">
            <feMorphology radius="2" operator="dilate" in="SourceAlpha" result="shadowSpreadOuter1"></feMorphology>
            <feOffset dx="0" dy="0" in="shadowSpreadOuter1" result="shadowOffsetOuter1"></feOffset>
            <feGaussianBlur stdDeviation="5" in="shadowOffsetOuter1" result="shadowBlurOuter1"></feGaussianBlur>
            <feColorMatrix values="0 0 0 0 0.184313725   0 0 0 0 0.835294118   0 0 0 0 0.4  0 0 0 0.32348279 0" type="matrix" in="shadowBlurOuter1"></feColorMatrix>
        </filter>
    </defs>
    <g id="Page-1" stroke="none" stroke-width="1" fill="none" fill-rule="evenodd">
        <g id="Artboard" transform="translate(-909.000000, -83.000000)">
            <g id="Group" transform="translate(571.000000, 52.000000)">
                <g id="Group-8" transform="translate(12.000000, 38.000000)">
                    <g id="spotify">
                        <use fill="black" fill-opacity="1" filter="url(#filter-2)" xlink:href="#path-1"></use>
                        <use fill="#2FD566" fill-rule="evenodd" xlink:href="#path-1"></use>
                    </g>
                </g>
            </g>
        </g>
    </g>
</svg>